PathFileType	4	(X/Y/Z)	HSS_walk4.trc
DataRate	CameraRate	NumFrames	NumMarkers	Units	OrigDataRate	OrigDataStartFrame	OrigNumFrames
120.0	120.0	4	44	mm	120.0	1	1155
Frame#	Time		R.Shoulder		Offset		L.Shoulder		R.Elbow		R.Wrist.Radial		R.Wrist		R.Hand		L.Elbow		L.Wrist.Radial		L.Wrist		L.Hand		R.Hip		V.Sacral		L.PSIS		L.Hip		R.Thigh.Upper		R.Thigh.Front		R.Thigh.Rear		X.Shell.Lower.Thigh.Right		R.Knee.Lateral		R.Shank.Upper		R.Shank.Front		R.Shank.Rear		X.Shell.Lower.Shank.Right		R.Ankle.Lateral		R.Heel		R.Toe		L.Thigh.Upper		L.Thigh.Front		L.Thigh.Rear		X.Shell.Lower.Thigh.Left		L.Knee.Lateral		L.Shank.Upper		L.Shank.Front		L.Shank.Rear		X.Shell.Lower.Shank.Left		L.Ankle.Lateral		L.Heel		L.Toe		R.Troc		L.Troc		R.PSIS		L.ASIS		R.ASIS
			X1	Y1	Z1	X2	Y2	Z2	X3	Y3	Z3	X4	Y4	Z4	X5	Y5	Z5	X6	Y6	Z6	X7	Y7	Z7	X8	Y8	Z8	X9	Y9	Z9	X10	Y10	Z10	X11	Y11	Z11	X12	Y12	Z12	X13	Y13	Z13	X14	Y14	Z14	X15	Y15	Z15	X16	Y16	Z16	X17	Y17	Z17	X18	Y18	Z18	X19	Y19	Z19	X20	Y20	Z20	X21	Y21	Z21	X22	Y22	Z22	X23	Y23	Z23	X24	Y24	Z24	X25	Y25	Z25	X26	Y26	Z26	X27	Y27	Z27	X28	Y28	Z28	X29	Y29	Z29	X30	Y30	Z30	X31	Y31	Z31	X32	Y32	Z32	X33	Y33	Z33	X34	Y34	Z34	X35	Y35	Z35	X36	Y36	Z36	X37	Y37	Z37	X38	Y38	Z38	X39	Y39	Z39	X40	Y40	Z40	X41	Y41	Z41	X42	Y42	Z42	X43	Y43	Z43	X44	Y44	Z44

1	0.00000	-1877.42505	1473.87134	-24.97298	-2000.20837	1384.21155	-315.47455	-1880.18176	1487.74365	-401.58636	-1886.67822	1105.76819	14.80740	-1764.45068	887.56708	51.39106	-1735.03931	898.70386	-15.54844	-1712.66138	816.59003	40.26438	-1888.69495	1121.98511	-451.56201	-1764.85767	914.58374	-475.96994	-1743.99060	913.62207	-406.35941	-1716.37708	844.71796	-455.78314	-1831.32605	1038.17432	-65.66325	-1948.57910	1017.56250	-215.77402	-1945.24841	1022.86145	-255.65887	-1828.27380	1038.00378	-362.23688	-1780.90710	696.96362	-30.21620	-1746.78174	660.73138	-46.59509	-1803.15173	657.96185	-21.41650	-1774.78271	626.00012	-39.72207	-1836.42212	516.80713	-55.36802	-1855.66223	367.48462	-8.00216	-1830.99341	322.97827	-32.73698	-1889.44031	332.82697	-19.72892	-1868.88965	291.56741	-29.61134	-1892.18213	70.24720	-78.18738	-1934.67883	32.52633	-127.91241	-1739.25427	32.28041	-71.04483	-1767.11523	695.71216	-379.30066	-1747.65601	647.31018	-353.90823	-1795.77881	658.93707	-393.48434	-1770.43127	624.80963	-378.95535	-1837.46619	507.80829	-357.27084	-1873.06726	304.99780	-394.36124	nan	nan	nan	-1903.99255	266.69736	-379.93552	-1881.80652	235.82462	-380.18347	-1872.94922	72.06334	-330.81406	-1928.88098	34.13179	-283.95569	-1729.76013	32.90735	-320.38333	-1813.37891	882.48438	-28.50360	-1814.10266	895.36768	-401.38828	-1949.46912	1022.23651	-170.71519	-1761.16528	1004.82373	-321.44687	-1768.67224	1004.40234	-96.09740
2	0.00833	-1877.00671	1473.78931	-25.44051	-2000.01245	1384.22083	-315.54834	-1879.94897	1487.74658	-401.61502	-1886.62231	1105.76526	14.80607	-1764.44031	887.56799	51.43430	-1734.96729	898.68402	-15.48280	-1712.65161	816.62622	40.28984	-1888.42517	1121.97278	-451.59857	-1764.51440	914.57007	-475.79465	-1744.28503	913.56738	-406.53143	-1716.02966	844.73071	-455.58841	-1831.22644	1038.12537	-65.70245	-1948.47864	1017.56458	-215.76569	-1945.16711	1022.87463	-255.65590	-1828.07678	1038.00061	-362.24817	-1780.84814	696.96002	-30.25481	-1746.72852	660.72491	-46.57220	-1803.10681	657.97107	-21.44704	-1774.72620	626.00543	-39.72767	-1836.40173	516.60443	-55.16746	-1855.63232	367.47144	-8.02095	-1830.99365	322.98822	-32.70087	-1889.42126	332.83362	-19.77125	-1868.89319	291.58618	-29.58326	-1892.19714	70.23718	-78.18263	-1934.69495	32.51945	-127.90047	-1739.28308	32.27386	-71.00336	-1766.98523	695.66650	-379.29425	-1747.60876	647.29950	-353.86322	-1795.68396	658.89673	-393.45319	-1770.35083	624.77588	-378.90820	-1837.39966	507.82132	-357.24609	-1873.00793	304.95636	-394.36713	nan	nan	nan	-1903.96143	266.72339	-379.92770	-1881.74036	235.83327	-380.17477	-1872.95605	72.10579	-330.80014	-1928.87939	34.13477	-283.94843	-1729.75085	32.86990	-320.33884	-1813.29138	882.48248	-28.52850	-1814.06238	895.27026	-402.56317	-1949.36829	1022.25647	-170.68272	-1761.06372	1004.87048	-321.45105	-1768.80383	1004.37341	-96.08591
3	0.01667	-1876.91895	1473.79309	-25.43237	-1999.83643	1384.22107	-315.63132	-1879.58789	1487.74731	-401.62976	-1886.54578	1105.75745	14.81708	-1764.41565	887.53796	51.40005	-1734.89758	898.66473	-15.47715	-1712.62756	816.68555	40.33342	-1888.21570	1121.93286	-451.60007	-1764.22876	914.56714	-475.69119	-1743.92468	913.69165	-406.32806	-1715.71289	844.75128	-455.39044	-1831.00549	1038.12805	-65.74826	-1948.32434	1017.56384	-215.76601	-1945.05334	1022.87756	-255.68961	-1827.86707	1038.00293	-362.18192	-1780.78748	696.95477	-30.24574	-1746.68030	660.72528	-46.58958	-1803.05981	657.95575	-21.41774	-1774.66943	625.99670	-39.72741	-1836.34705	516.60474	-55.20306	-1855.61731	367.48660	-8.02417	-1830.99084	323.00369	-32.67970	-1889.38904	332.84946	-19.72899	-1868.87744	291.59903	-29.61485	-1892.17871	70.24233	-78.11519	-1934.67322	32.51825	-127.93076	-1739.29382	32.29069	-70.98122	-1766.91675	695.70007	-379.29941	-1747.52747	647.29901	-353.85825	-1795.59143	658.91901	-393.41782	-1770.25806	624.81287	-378.90778	-1837.32397	507.80194	-357.21252	-1872.98730	304.95895	-394.31735	nan	nan	nan	-1903.93018	266.74222	-379.91428	-1881.75415	235.84872	-380.15845	-1872.95007	72.07618	-330.78784	-1928.87231	34.13990	-283.92340	-1729.73108	32.89066	-320.34814	-1813.20569	882.48132	-28.51160	-1813.86621	895.34235	-401.63126	-1949.29785	1022.26263	-170.70470	-1760.91614	1004.82239	-321.43640	-1768.87427	1004.32397	-96.09689
4	0.02500	-1877.13855	1473.84473	-25.08682	-1999.63770	1384.21057	-315.70273	-1879.40051	1487.68530	-401.69287	-1886.48682	1105.73975	14.84503	-1764.40759	887.51086	51.43681	-1734.86060	898.59283	-15.42455	-1712.59973	816.68915	40.36610	-1887.98413	1121.87610	-451.56854	-1763.93518	914.55774	-475.52747	-1743.15991	913.69238	-405.91025	-1715.40027	844.71655	-455.10809	-1831.00354	1038.15784	-65.66070	-1948.21826	1017.56403	-215.79523	-1944.93787	1022.88892	-255.71265	-1827.84485	1038.00049	-362.27512	-1780.72070	696.94897	-30.20481	-1746.62842	660.71893	-46.55366	-1803.03381	657.96417	-21.39237	-1774.61230	625.94916	-39.75485	-1836.30005	516.61151	-55.18214	-1855.60095	367.49423	-8.02062	-1830.97278	323.00839	-32.62684	-1889.38940	332.85712	-19.73409	-1868.86755	291.59515	-29.56150	-1892.20483	70.26661	-78.15262	-1934.67737	32.51436	-127.92451	-1739.30591	32.30173	-71.00400	-1766.79541	695.66467	-379.24982	-1747.46448	647.30469	-353.81433	-1795.47107	658.91840	-393.39999	-1770.14307	624.78973	-378.86804	-1837.25427	507.82510	-357.22330	-1872.95093	304.96970	-394.27994	nan	nan	nan	-1903.90881	266.74387	-379.91245	-1881.74438	235.85625	-380.15057	-1872.96399	72.10461	-330.77957	-1928.88354	34.14398	-283.91443	-1729.74292	32.87280	-320.33685	-1813.12634	882.48108	-28.52320	-1813.77112	895.29608	-401.54907	-1949.17126	1022.30499	-170.72852	-1760.80969	1004.85089	-321.45416	-1768.52832	1004.37482	-96.06058
